<?xml version="1.0" encoding="iso-8859-1"?>
<!-- Generator: Adobe Illustrator 19.0.0, SVG Export Plug-In . SVG Version: 6.00 Build 0)  -->
<svg version="1.1" id="Layer_1" xmlns="http://www.w3.org/2000/svg" xmlns:xlink="http://www.w3.org/1999/xlink" x="0px" y="0px"
	 viewBox="0 0 505 505" style="enable-background:new 0 0 505 505;" xml:space="preserve">
<circle style="fill:#54C0EB;" cx="252.5" cy="252.5" r="252.5"/>
<path style="fill:#324A5E;" d="M405.7,408.8H99.3c-1.7,0-3.1-1.4-3.1-3.1V99.3c0-1.7,1.4-3.1,3.1-3.1h306.5c1.7,0,3.1,1.4,3.1,3.1
	v306.5C408.8,407.4,407.4,408.8,405.7,408.8z"/>
<rect x="109.9" y="174.3" style="fill:#FFFFFF;" width="285.2" height="219.2"/>
<g>
	<path style="fill:#E6E9EE;" d="M360.5,149.8h30.2c0.4,0,0.7-0.3,0.7-0.7v-30.2c0-0.4-0.3-0.7-0.7-0.7h-30.2c-0.4,0-0.7,0.3-0.7,0.7
		v30.2C359.7,149.5,360.1,149.8,360.5,149.8z"/>
	<path style="fill:#E6E9EE;" d="M306.5,149.8h30.2c0.4,0,0.7-0.3,0.7-0.7v-30.2c0-0.4-0.3-0.7-0.7-0.7h-30.2c-0.4,0-0.7,0.3-0.7,0.7
		v30.2C305.8,149.5,306.1,149.8,306.5,149.8z"/>
	<path style="fill:#E6E9EE;" d="M252.5,149.8h30.2c0.4,0,0.7-0.3,0.7-0.7v-30.2c0-0.4-0.3-0.7-0.7-0.7h-30.2c-0.4,0-0.7,0.3-0.7,0.7
		v30.2C251.8,149.5,252.1,149.8,252.5,149.8z"/>
</g>
<path style="fill:#395767;" d="M227.8,272.4V245c0-13.6,11.1-24.7,24.7-24.7c13.6,0,24.7,11.1,24.7,24.7v27.4h10.9V245
	c0-19.6-16-35.6-35.6-35.6s-35.6,16-35.6,35.6v27.4H227.8z"/>
<path style="fill:#FF7058;" d="M295.6,269.6h-86.3c-3.2,0-5.9,2.5-5.9,5.5v77.7c0,3,2.6,5.5,5.9,5.5h86.3c3.2,0,5.9-2.5,5.9-5.5
	v-77.7C301.5,272.1,298.9,269.6,295.6,269.6z"/>
<path style="fill:#395767;" d="M259.7,306.8c0-4-3.2-7.2-7.2-7.2s-7.2,3.2-7.2,7.2c0,2.6,1.4,4.9,3.5,6.1l-1.3,15.4h10l-1.3-15.4
	C258.3,311.7,259.7,309.4,259.7,306.8z"/>
<g>
</g>
<g>
</g>
<g>
</g>
<g>
</g>
<g>
</g>
<g>
</g>
<g>
</g>
<g>
</g>
<g>
</g>
<g>
</g>
<g>
</g>
<g>
</g>
<g>
</g>
<g>
</g>
<g>
</g>
</svg>
