<?xml version="1.0" encoding="iso-8859-1"?>
<!-- Generator: Adobe Illustrator 19.0.0, SVG Export Plug-In . SVG Version: 6.00 Build 0)  -->
<svg version="1.1" id="Layer_1" xmlns="http://www.w3.org/2000/svg" xmlns:xlink="http://www.w3.org/1999/xlink" x="0px" y="0px"
	 viewBox="0 0 512 512" style="enable-background:new 0 0 512 512;" xml:space="preserve">
<circle style="fill:#FF8C8A;" cx="256" cy="256" r="256"/>
<path style="fill:#FA7876;" d="M511.974,257.826C510.991,398.363,396.767,512,256,512c-9.301,0-18.481-0.511-27.527-1.481
	l-115.794-114.53l282.665-251.002L511.974,257.826z"/>
<polygon style="fill:#F8F8F8;" points="112.679,182.44 399.315,182.44 399.315,342.838 346.164,395.989 112.679,395.989 "/>
<path style="fill:#68606E;" d="M112.679,182.434h286.642v-24.201c0-13.31-10.891-24.201-24.207-24.201H136.88
	c-13.31,0-24.201,10.891-24.201,24.201V182.434z"/>
<path style="fill:#F8F8F8;" d="M342.729,116.005L342.729,116.005c6.556,0,11.925,5.337,11.925,11.855v18.513
	c0,6.524-5.369,11.855-11.925,11.855l0,0c-6.562,0-11.931-5.33-11.931-11.855V127.86
	C330.798,121.342,336.167,116.005,342.729,116.005z"/>
<g>
	<path style="fill:#D9D9DD;" d="M342.729,116.005L342.729,116.005v42.222l0,0c6.556,0,11.925-5.33,11.925-11.855V127.86
		C354.654,121.342,349.285,116.005,342.729,116.005z"/>
	<polygon style="fill:#D9D9DD;" points="346.164,342.838 399.315,342.838 346.164,395.989 	"/>
</g>
<path style="fill:#F8F8F8;" d="M172.156,116.005L172.156,116.005c6.562,0,11.931,5.337,11.931,11.855v18.513
	c0,6.524-5.369,11.855-11.931,11.855l0,0c-6.556,0-11.925-5.33-11.925-11.855V127.86C160.231,121.342,165.6,116.005,172.156,116.005
	z"/>
<path style="fill:#D9D9DD;" d="M172.156,116.005L172.156,116.005v42.222l0,0c6.562,0,11.931-5.33,11.931-11.855V127.86
	C184.087,121.342,178.719,116.005,172.156,116.005z"/>
<path style="fill:#B3B3BD;" d="M159.427,206.175h29.199c2.298,0,4.175,1.87,4.175,4.169v22.528c0,2.292-1.877,4.169-4.175,4.169
	h-29.199c-2.292,0-4.169-1.877-4.169-4.169v-22.528C155.258,208.045,157.135,206.175,159.427,206.175z M323.361,299.16h29.206
	c2.292,0,4.169,1.877,4.169,4.175v22.528c0,2.292-1.877,4.169-4.169,4.169h-29.206c-2.292,0-4.169-1.877-4.169-4.169v-22.528
	C319.192,301.037,321.069,299.16,323.361,299.16z M268.716,299.16h29.206c2.292,0,4.169,1.877,4.169,4.175v22.528
	c0,2.292-1.877,4.169-4.169,4.169h-29.206c-2.292,0-4.169-1.877-4.169-4.169v-22.528C264.548,301.037,266.425,299.16,268.716,299.16
	z M214.072,299.16h29.199c2.298,0,4.175,1.877,4.175,4.175v22.528c0,2.292-1.877,4.169-4.175,4.169h-29.199
	c-2.292,0-4.169-1.877-4.169-4.169v-22.528C209.903,301.037,211.78,299.16,214.072,299.16z M159.427,299.16h29.199
	c2.298,0,4.175,1.877,4.175,4.175v22.528c0,2.292-1.877,4.169-4.175,4.169h-29.199c-2.292,0-4.169-1.877-4.169-4.169v-22.528
	C155.258,301.037,157.135,299.16,159.427,299.16z M323.361,252.668h29.206c2.292,0,4.169,1.877,4.169,4.169v22.528
	c0,2.298-1.877,4.169-4.169,4.169h-29.206c-2.292,0-4.169-1.87-4.169-4.169v-22.528
	C319.192,254.545,321.069,252.668,323.361,252.668z M268.716,252.668h29.206c2.292,0,4.169,1.877,4.169,4.169v22.528
	c0,2.298-1.877,4.169-4.169,4.169h-29.206c-2.292,0-4.169-1.87-4.169-4.169v-22.528
	C264.548,254.545,266.425,252.668,268.716,252.668z M214.072,252.668h29.199c2.298,0,4.175,1.877,4.175,4.169v22.528
	c0,2.298-1.877,4.169-4.175,4.169h-29.199c-2.292,0-4.169-1.87-4.169-4.169v-22.528C209.903,254.545,211.78,252.668,214.072,252.668
	z M159.427,252.668h29.199c2.298,0,4.175,1.877,4.175,4.169v22.528c0,2.298-1.877,4.169-4.175,4.169h-29.199
	c-2.292,0-4.169-1.87-4.169-4.169v-22.528C155.258,254.545,157.135,252.668,159.427,252.668z M323.361,206.175h29.206
	c2.292,0,4.169,1.87,4.169,4.169v22.528c0,2.292-1.877,4.169-4.169,4.169h-29.206c-2.292,0-4.169-1.877-4.169-4.169v-22.528
	C319.192,208.045,321.069,206.175,323.361,206.175z M268.716,206.175h29.206c2.292,0,4.169,1.87,4.169,4.169v22.528
	c0,2.292-1.877,4.169-4.169,4.169h-29.206c-2.292,0-4.169-1.877-4.169-4.169v-22.528
	C264.548,208.045,266.425,206.175,268.716,206.175z M214.072,206.175h29.199c2.298,0,4.175,1.87,4.175,4.169v22.528
	c0,2.292-1.877,4.169-4.175,4.169h-29.199c-2.292,0-4.169-1.877-4.169-4.169v-22.528
	C209.903,208.045,211.78,206.175,214.072,206.175z"/>
<g>
</g>
<g>
</g>
<g>
</g>
<g>
</g>
<g>
</g>
<g>
</g>
<g>
</g>
<g>
</g>
<g>
</g>
<g>
</g>
<g>
</g>
<g>
</g>
<g>
</g>
<g>
</g>
<g>
</g>
</svg>
