<svg height="512pt" viewBox="0 0 512 512" width="512pt" xmlns="http://www.w3.org/2000/svg"><path d="m512 256c0 141.386719-114.613281 256-256 256s-256-114.613281-256-256 114.613281-256 256-256 256 114.613281 256 256zm0 0" fill="#06ccab"/><path d="m512 256c0-17.503906-1.761719-34.59375-5.109375-51.109375l-118.890625-118.890625-20.300781 34.699219-48.699219-48.699219-195 354 80.890625 80.890625c16.515625 3.347656 33.605469 5.109375 51.109375 5.109375 141.386719 0 256-114.613281 256-256zm0 0" fill="#11a892"/><path d="m124 86h264v340h-264zm0 0" fill="#ffce00"/><path d="m255.59375 86h132.40625v340h-132.40625zm0 0" fill="#ffb600"/><path d="m143.902344 86h224.195312v314.371094h-224.195312zm0 0" fill="#fff"/><path d="m255.59375 86h112.503906v314.371094h-112.503906zm0 0" fill="#dce1eb"/><path d="m193 72h126v46h-126zm0 0" fill="#ff7045"/><path d="m255.59375 72h63.40625v46h-63.40625zm0 0" fill="#de4726"/><g fill="#06ccab"><path d="m183.5625 207.054688-24.402344-24.402344 15.554688-15.554688 8.847656 8.847656 27.722656-27.722656 15.554688 15.554688zm0 0"/><path d="m183.5625 283.304688-24.402344-24.402344 15.554688-15.554688 8.847656 8.847656 27.722656-27.722656 15.554688 15.554688zm0 0"/><path d="m183.5625 359.554688-24.402344-24.402344 15.554688-15.554688 8.847656 8.847656 27.722656-27.722656 15.554688 15.554688zm0 0"/></g><path d="m239 174h97v22h-97zm0 0" fill="#7e8596"/><path d="m239 251h97v22h-97zm0 0" fill="#7e8596"/><path d="m239 324.195312h97v22h-97zm0 0" fill="#7e8596"/></svg>