<?xml version="1.0" encoding="iso-8859-1"?>
<!-- Generator: Adobe Illustrator 19.0.0, SVG Export Plug-In . SVG Version: 6.00 Build 0)  -->
<svg version="1.1" id="Capa_1" xmlns="http://www.w3.org/2000/svg" xmlns:xlink="http://www.w3.org/1999/xlink" x="0px" y="0px"
	 viewBox="0 0 409.6 409.6" style="enable-background:new 0 0 409.6 409.6;" xml:space="preserve">
<circle style="fill:#45B39C;" cx="204.8" cy="204.8" r="204.8"/>
<path style="opacity:0.1;enable-background:new    ;" d="M409.6,204.8c0-7.851-0.485-15.585-1.345-23.207l-94.12-94.12H175.041
	v12.757H95.468v221.91l86.114,86.113c7.625,0.861,15.363,1.347,23.218,1.347C317.908,409.6,409.6,317.908,409.6,204.8z"/>
<polygon style="fill:#2F4859;" points="175.049,253.112 175.049,87.467 314.131,87.467 314.131,272.39 199.519,272.39 "/>
<g>
	<rect x="217.44" y="163.57" style="fill:#64798A;" width="81.963" height="10.637"/>
	<rect x="215.68" y="226.42" style="fill:#64798A;" width="81.963" height="10.637"/>
	<rect x="215.68" y="205.98" style="fill:#64798A;" width="81.963" height="10.637"/>
	<rect x="215.68" y="184.69" style="fill:#64798A;" width="81.963" height="10.637"/>
	<rect x="218.32" y="121.39" style="fill:#64798A;" width="81.963" height="10.637"/>
	<rect x="216.54" y="142.58" style="fill:#64798A;" width="81.963" height="10.637"/>
</g>
<polygon style="fill:#D5D6DB;" points="262.364,123.362 262.364,322.133 95.469,322.133 95.469,100.229 233,100.229 "/>
<g>
	<rect x="113.14" y="218.07" style="fill:#64798A;" width="98.35" height="12.762"/>
	<rect x="115.28" y="142.63" style="fill:#64798A;" width="98.35" height="12.762"/>
	<rect x="115.28" y="167.17" style="fill:#64798A;" width="98.35" height="12.762"/>
	<rect x="115.28" y="192.68" style="fill:#64798A;" width="98.35" height="12.762"/>
	<rect x="112.08" y="268.64" style="fill:#64798A;" width="98.35" height="12.762"/>
	<rect x="114.2" y="243.24" style="fill:#64798A;" width="98.35" height="12.762"/>
</g>
<polygon style="fill:#3A556A;" points="233,100.229 262.364,123.362 233,123.362 "/>
<g>
</g>
<g>
</g>
<g>
</g>
<g>
</g>
<g>
</g>
<g>
</g>
<g>
</g>
<g>
</g>
<g>
</g>
<g>
</g>
<g>
</g>
<g>
</g>
<g>
</g>
<g>
</g>
<g>
</g>
</svg>
