<svg height="496pt" viewBox="0 0 496 496" width="496pt" xmlns="http://www.w3.org/2000/svg"><path d="m488 248c0 132.546875-107.453125 240-240 240s-240-107.453125-240-240 107.453125-240 240-240 240 107.453125 240 240zm0 0" fill="#85d3c1"/><path d="m264 89.359375c0 16.640625-7.679688 31.519531-19.679688 41.519531-7.601562 6.320313-12.320312 15.359375-12.320312 25.199219v59.921875h-48v-59.921875c0-9.839844-4.71875-18.878906-12.320312-25.199219-12-10-19.679688-24.878906-19.679688-41.519531 0-21.839844 13.121094-40.558594 32-49.359375v48l24 16 24-16v-48c18.878906 8.800781 32 27.519531 32 49.359375zm0 0" fill="#f5f7fa"/><path d="m344 136v32h-64v-32zm0 0" fill="#f5f7fa"/><path d="m328 56v80h-32v-96h8zm0 0" fill="#f9d48a"/><path d="m280 168h64v48h-64zm0 0" fill="#ff958a"/><path d="m40 280v-64h352v64zm0 0" fill="#f9d48a"/><path d="m40 456v-176h352v32h-8l-5.28125 19.199219c-4.238281 1.359375-8.398438 3.039062-12.320312 5.121093l-17.277344-9.839843-22.640625 22.640625 9.839843 17.277344c-2.082031 3.921874-3.761718 8.082031-5.121093 12.320312l-19.199219 5.28125v32l19.199219 5.28125c1.359375 4.238281 3.039062 8.398438 5.121093 12.320312l-9.839843 17.277344 5.039062 5.121094zm0 0" fill="#f5f7fa"/><path d="m264 312h48v48h-48zm0 0" fill="#ff958a"/><path d="m184 312h48v48h-48zm0 0" fill="#ff958a"/><path d="m72 312h80v80h-80zm0 0" fill="#ff958a"/><path d="m468.160156 343.761719 5.359375 5.359375-9.839843 17.277344c2.082031 3.921874 3.761718 8.082031 5.121093 12.320312l19.199219 5.28125v32l-19.199219 5.28125c-1.359375 4.238281-3.039062 8.398438-5.121093 12.320312l9.839843 17.277344-22.640625 22.640625-17.277344-9.839843c-3.921874 2.082031-8.082031 3.761718-12.320312 5.121093l-5.28125 19.199219h-32l-5.28125-19.199219c-4.238281-1.359375-8.398438-3.039062-12.320312-5.121093l-17.277344 9.839843-5.441406-5.359375-12.160157-12.160156-5.039062-5.121094 9.839843-17.277344c-2.082031-3.921874-3.761718-8.082031-5.121093-12.320312l-19.199219-5.28125v-32l19.199219-5.28125c1.359375-4.238281 3.039062-8.398438 5.121093-12.320312l-9.839843-17.277344 22.640625-22.640625 17.277344 9.839843c3.921874-2.082031 8.082031-3.761718 12.320312-5.121093l5.28125-19.199219h32l5.28125 19.199219c4.238281 1.359375 8.398438 3.039062 12.320312 5.121093l17.277344-9.839843zm-28.160156 56.238281c0-22.078125-17.921875-40-40-40s-40 17.921875-40 40 17.921875 40 40 40 40-17.921875 40-40zm0 0" fill="#f9d48a"/><path d="m440 400c0 22.089844-17.910156 40-40 40s-40-17.910156-40-40 17.910156-40 40-40 40 17.910156 40 40zm0 0" fill="#f5f7fa"/><g fill="#232323"><path d="m64 240h16v16h-16zm0 0"/><path d="m96 240h16v16h-16zm0 0"/><path d="m128 240h16v16h-16zm0 0"/><path d="m472.710938 366.671875 10.808593-18.917969-5.953125-5.953125c12.1875-29.777343 18.433594-61.289062 18.433594-93.800781 0-136.753906-111.246094-248-248-248s-248 111.246094-248 248c0 42.761719 11.097656 84.792969 32 121.792969v94.207031h94.191406c37.007813 20.902344 79.054688 32 121.808594 32 32.511719 0 64.023438-6.246094 93.792969-18.441406l5.949219 5.953125 18.921874-10.808594c1.816407.832031 3.640626 1.601563 5.480469 2.289063l5.742188 21.007812h44.21875l5.742187-21c1.832032-.6875 3.664063-1.457031 5.480469-2.289062l18.917969 10.808593 31.265625-31.261719-10.808594-18.921874c.832031-1.816407 1.601563-3.640626 2.289063-5.480469l21.007812-5.742188v-44.21875l-21-5.742187c-.6875-1.839844-1.457031-3.664063-2.289062-5.480469zm-456.710938-118.671875c0-127.921875 104.078125-232 232-232s232 104.078125 232 232c0 28.152344-4.953125 55.519531-14.71875 81.511719l-13.023438-13.023438-18.921874 10.808594c-1.816407-.832031-3.640626-1.601563-5.480469-2.289063l-5.742188-21.007812h-22.113281v-96h-48v-80h-16v-76.28125l-29.574219-19.71875h-18.425781v96h-16v80h-32v-51.9375c0-7.117188 3.441406-14.054688 9.433594-19.039062 14.34375-11.917969 22.566406-29.304688 22.566406-47.6875 0-24.039063-14.375-46.257813-36.632812-56.59375l-11.367188-5.277344v56.253906l-16 10.664062-16-10.664062v-56.253906l-11.367188 5.277344c-22.257812 10.335937-36.632812 32.554687-36.632812 56.59375 0 18.382812 8.222656 35.769531 22.566406 47.6875 5.992188 4.984374 9.433594 11.921874 9.433594 19.039062v51.9375h-144v124.496094c-10.457031-26.785156-16-55.449219-16-84.496094zm160.808594-123.273438c-10.679688-8.886718-16.808594-21.78125-16.808594-35.390624 0-13.34375 6.007812-25.953126 16-34.6875v37.632812l32 21.335938 32-21.335938v-37.632812c9.992188 8.734374 16 21.34375 16 34.6875 0 13.609374-6.128906 26.503906-16.808594 35.390624-9.65625 8.035157-15.191406 19.449219-15.191406 31.335938v51.9375h-32v-51.9375c0-11.886719-5.535156-23.300781-15.191406-31.335938zm207.191406 99.273438v48h-336v-48zm-64-96h-16v-78.382812l16 10.664062zm16 16v16h-48v-16zm-48 32h48v32h-48zm-240 112h336v16h-6.113281l-5.742188 21c-1.832031.6875-3.664062 1.457031-5.480469 2.289062l-18.921874-10.808593-27.742188 27.75v-40.230469h-64v64h64v-14.097656l7.289062 12.769531c-.832031 1.816406-1.601562 3.640625-2.289062 5.480469l-21 5.734375v44.21875l21 5.742187c.6875 1.832032 1.457031 3.664063 2.289062 5.480469l-8.378906 14.671875h-270.910156zm256 32v32h-32v-32zm-56 160c-29.039062 0-57.703125-5.535156-84.496094-16h164.726563l1.28125 1.28125c-25.992188 9.765625-53.359375 14.71875-81.511719 14.71875zm232-70.113281-17.542969 4.808593-1.289062 4.191407c-1.144531 3.699219-2.679688 7.386719-4.574219 10.960937l-2.066406 3.878906 9.039062 15.839844-13.980468 13.984375-15.84375-9.039062-3.878907 2.0625c-3.574219 1.898437-7.261719 3.441406-10.960937 4.578125l-4.191406 1.289062-4.824219 17.558594h-19.78125l-4.808594-17.542969-4.191406-1.289062c-3.699219-1.144531-7.386719-2.679688-10.960938-4.574219l-3.878906-2.066406-15.839844 9.039062-13.984375-13.980468 9.039063-15.84375-2.066407-3.878907c-1.894531-3.574219-3.4375-7.261719-4.574218-10.960937l-1.289063-4.191406-17.550781-4.824219v-19.78125l17.542969-4.808594 1.289062-4.191406c1.144531-3.699219 2.679688-7.386719 4.574219-10.960938l2.066406-3.878906-9.039062-15.839844 13.980468-13.984375 15.84375 9.039063 3.878907-2.066407c3.574219-1.894531 7.261719-3.4375 10.960937-4.574218l4.191406-1.289063 4.824219-17.550781h19.78125l4.808594 17.542969 4.191406 1.289062c3.699219 1.144531 7.386719 2.679688 10.960938 4.574219l3.878906 2.066406 15.839844-9.039062 13.984375 13.980468-9.039063 15.84375 2.066407 3.878907c1.894531 3.574219 3.4375 7.261719 4.574218 10.960937l1.289063 4.191406 17.550781 4.824219zm0 0"/><path d="m400 352c-26.472656 0-48 21.527344-48 48s21.527344 48 48 48 48-21.527344 48-48-21.527344-48-48-48zm0 80c-17.648438 0-32-14.351562-32-32s14.351562-32 32-32 32 14.351562 32 32-14.351562 32-32 32zm0 0"/><path d="m64 400h96v-96h-96zm16-80h64v64h-64zm0 0"/><path d="m64 416h96v16h-96zm0 0"/><path d="m240 304h-64v64h64zm-16 48h-32v-32h32zm0 0"/><path d="m176 384h112v16h-112zm0 0"/><path d="m176 416h112v16h-112zm0 0"/></g></svg>