<?xml version="1.0" encoding="iso-8859-1"?>
<!-- Generator: Adobe Illustrator 19.0.0, SVG Export Plug-In . SVG Version: 6.00 Build 0)  -->
<svg version="1.1" id="Layer_1" xmlns="http://www.w3.org/2000/svg" xmlns:xlink="http://www.w3.org/1999/xlink" x="0px" y="0px"
	 viewBox="0 0 504 504" style="enable-background:new 0 0 504 504;" xml:space="preserve">
<circle style="fill:#84DBFF;" cx="252" cy="252" r="252"/>
<polygon style="fill:#F1543F;" points="310.5,425.4 252,395 193.5,425.4 193.5,277.6 310.5,277.6 "/>
<circle style="fill:#FFD05B;" cx="252" cy="202.9" r="124.2"/>
<path style="fill:#F9B54C;" d="M252,307.7c-57.8,0-104.8-47-104.8-104.8S194.2,98,252,98s104.8,47,104.8,104.8
	S309.8,307.7,252,307.7z M252,113.6c-49.2,0-89.3,40-89.3,89.3s40,89.3,89.3,89.3s89.3-40,89.3-89.3S301.2,113.6,252,113.6z"/>
<polygon style="fill:#FFFFFF;" points="252,122.3 275.4,170.5 327.6,178.2 289.8,215.7 298.7,268.7 252,243.7 205.3,268.7 
	214.2,215.7 176.4,178.2 228.6,170.5 "/>
<g>
</g>
<g>
</g>
<g>
</g>
<g>
</g>
<g>
</g>
<g>
</g>
<g>
</g>
<g>
</g>
<g>
</g>
<g>
</g>
<g>
</g>
<g>
</g>
<g>
</g>
<g>
</g>
<g>
</g>
</svg>
