<?xml version="1.0" encoding="UTF-8" standalone="no"?>
<svg
   xmlns:dc="http://purl.org/dc/elements/1.1/"
   xmlns:cc="http://creativecommons.org/ns#"
   xmlns:rdf="http://www.w3.org/1999/02/22-rdf-syntax-ns#"
   xmlns:svg="http://www.w3.org/2000/svg"
   xmlns="http://www.w3.org/2000/svg"
   xmlns:sodipodi="http://sodipodi.sourceforge.net/DTD/sodipodi-0.dtd"
   xmlns:inkscape="http://www.inkscape.org/namespaces/inkscape"
   height="512pt"
   viewBox="0 0 512 512"
   width="512pt"
   version="1.1"
   id="svg129"
   sodipodi:docname="setup.svg"
   inkscape:version="0.92.3 (2405546, 2018-03-11)">
  <metadata
     id="metadata135">
    <rdf:RDF>
      <cc:Work
         rdf:about="">
        <dc:format>image/svg+xml</dc:format>
        <dc:type
           rdf:resource="http://purl.org/dc/dcmitype/StillImage" />
        <dc:title></dc:title>
      </cc:Work>
    </rdf:RDF>
  </metadata>
  <defs
     id="defs133" />
  <sodipodi:namedview
     pagecolor="#ffffff"
     bordercolor="#666666"
     borderopacity="1"
     objecttolerance="10"
     gridtolerance="10"
     guidetolerance="10"
     inkscape:pageopacity="0"
     inkscape:pageshadow="2"
     inkscape:window-width="1853"
     inkscape:window-height="1025"
     id="namedview131"
     showgrid="false"
     inkscape:zoom="0.55664063"
     inkscape:cx="148.06769"
     inkscape:cy="291.71485"
     inkscape:window-x="67"
     inkscape:window-y="27"
     inkscape:window-maximized="1"
     inkscape:current-layer="svg129" />
  <circle
     style="fill:#90dfaa;stroke-width:0.9868421"
     cx="255.84735"
     cy="255.0842"
     r="252.63158"
     id="circle322" />
  <path
     inkscape:connector-curvature="0"
     style="fill:#2c9984;stroke-width:0.9868421"
     d="m 508.47892,255.08417 c 0,-4.50097 -0.12237,-8.97433 -0.35526,-13.41907 L 403.29735,136.83881 184.36348,296.0924 109.0842,341.81083 274.31412,507.04075 c 130.90263,-9.45888 234.1648,-118.64408 234.1648,-251.95658 z"
     id="path324" />
  <rect
     x="210.67958"
     y="324.32401"
     style="fill:#2b3b4e;stroke-width:0.9868421"
     width="90.334541"
     height="60.223026"
     id="rect326" />
  <rect
     x="255.28583"
     y="324.32401"
     style="fill:#272525;stroke-width:0.9868421"
     width="45.734211"
     height="60.223026"
     id="rect328" />
  <path
     inkscape:connector-curvature="0"
     style="fill:#324a5e;stroke-width:0.9868421"
     d="M 395.60787,344.39833 H 116.08683 c -5.9625,0 -10.79802,-4.83455 -10.79802,-10.79804 v -189.1855 c 0,-5.96249 4.83453,-10.79803 10.79802,-10.79803 h 279.52104 c 5.9625,0 10.79803,4.83455 10.79803,10.79803 v 189.18649 c 0,5.9625 -4.83553,10.79705 -10.79803,10.79705 z"
     id="path330" />
  <path
     inkscape:connector-curvature="0"
     style="fill:#2b3b4e;stroke-width:0.9868421"
     d="M 395.60787,133.61676 H 255.2809 v 210.78157 h 140.32697 c 5.9625,0 10.79803,-4.83455 10.79803,-10.79804 v -189.1855 c 0,-5.96447 -4.83553,-10.79803 -10.79803,-10.79803 z"
     id="path332" />
  <rect
     x="118.06546"
     y="145.93352"
     style="fill:#e6f3ff;stroke-width:0.9868421"
     width="275.56381"
     height="186.14803"
     id="rect334" />
  <rect
     x="255.28583"
     y="145.93352"
     style="fill:#cfdbe6;stroke-width:0.9868421"
     width="138.34341"
     height="186.14803"
     id="rect336" />
  <rect
     x="195.62437"
     y="374.50986"
     style="fill:#324a5e;stroke-width:0.9868421"
     width="120.44704"
     height="30.111513"
     id="rect338" />
  <rect
     x="255.28583"
     y="374.50986"
     style="fill:#2b3b4e;stroke-width:0.9868421"
     width="60.789471"
     height="30.111513"
     id="rect340" />
  <path
     inkscape:connector-curvature="0"
     style="fill:#fd8469;stroke-width:0.9868421"
     d="m 203.48058,257.01148 v -13.91052 h -7.83256 c -0.65625,-2.55198 -1.6727,-4.95888 -2.98026,-7.17435 l 5.54407,-5.54408 -9.83684,-9.83683 -5.54408,5.54407 c -2.21349,-1.30855 -4.62039,-2.32204 -7.17434,-2.98025 v -7.83257 h -13.91053 v 7.83257 c -2.55197,0.65624 -4.95888,1.67269 -7.17434,2.98025 l -5.54407,-5.54407 -9.83685,9.83683 5.54408,5.54408 c -1.30856,2.21349 -2.32204,4.6204 -2.98027,7.17237 h -7.83256 v 13.91053 h 7.83256 c 0.65625,2.55395 1.6727,4.95888 2.98027,7.17434 l -5.54408,5.54407 9.83685,9.83685 5.54407,-5.54211 c 2.21349,1.30856 4.6204,2.32401 7.17434,2.98026 v 7.83257 h 13.91053 v -7.83257 c 2.55197,-0.65625 4.95888,-1.67269 7.17237,-2.98026 l 5.54408,5.54408 9.83684,-9.83684 -5.54408,-5.54407 c 1.30855,-2.21349 2.32401,-4.62041 2.98026,-7.17435 z m -34.77829,5.69112 c -6.98388,0 -12.64737,-5.66151 -12.64737,-12.64737 0,-6.98388 5.66152,-12.64737 12.64737,-12.64737 6.98388,0 12.64737,5.66152 12.64737,12.64737 0,6.98586 -5.6625,12.64737 -12.64737,12.64737 z"
     id="path342" />
  <g
     id="g348"
     transform="matrix(0.98684207,0,0,0.98684207,3.2157808,2.452626)">
    <path
       inkscape:connector-curvature="0"
       style="fill:#fc6f58"
       d="m 202.935,257.953 v -14.096 h -7.937 c -0.665,-2.586 -1.695,-5.025 -3.02,-7.268 l 5.618,-5.618 -9.968,-9.968 -5.618,5.618 c -2.243,-1.326 -4.682,-2.353 -7.27,-3.019 v -7.937 h -7.521 v 22.45 c 0.159,-0.005 0.314,-0.024 0.474,-0.024 7.077,0 12.816,5.739 12.816,12.816 0,7.077 -5.737,12.816 -12.816,12.816 -0.16,0 -0.315,-0.019 -0.474,-0.024 v 22.45 h 7.523 v -7.937 c 2.586,-0.665 5.025,-1.693 7.268,-3.019 l 5.618,5.618 9.968,-9.968 -5.618,-5.618 c 1.326,-2.245 2.355,-4.684 3.02,-7.27 h 7.937 z"
       id="path344" />
    <path
       inkscape:connector-curvature="0"
       style="fill:#fc6f58"
       d="m 259.32,301.651 v -9.868 h -5.556 c -0.465,-1.81 -1.186,-3.518 -2.114,-5.089 l 3.932,-3.932 -6.977,-6.977 -3.932,3.932 c -1.57,-0.927 -3.277,-1.648 -5.089,-2.113 v -5.556 h -9.868 v 5.556 c -1.81,0.465 -3.518,1.186 -5.089,2.113 l -3.932,-3.932 -6.977,6.977 3.932,3.932 c -0.927,1.57 -1.648,3.277 -2.113,5.087 h -5.556 v 9.868 h 5.556 c 0.465,1.81 1.186,3.518 2.113,5.089 l -3.932,3.932 6.977,6.977 3.932,-3.932 c 1.57,0.927 3.279,1.648 5.089,2.114 v 5.556 h 9.868 v -5.556 c 1.81,-0.465 3.518,-1.186 5.087,-2.114 l 3.934,3.934 6.977,-6.977 -3.932,-3.932 c 0.927,-1.57 1.648,-3.279 2.114,-5.089 z m -24.669,4.037 c -4.954,0 -8.971,-4.017 -8.971,-8.971 0,-4.954 4.017,-8.971 8.971,-8.971 4.954,0 8.971,4.017 8.971,8.971 0,4.954 -4.016,8.971 -8.971,8.971 z"
       id="path346" />
  </g>
  <path
     inkscape:connector-curvature="0"
     style="fill:#f1543f;stroke-width:0.9868421"
     d="m 259.12366,300.13451 v -9.73816 h -5.48289 c -0.45888,-1.78619 -1.1704,-3.47171 -2.08618,-5.02007 l 3.88026,-3.88224 -6.8852,-6.88519 -3.88026,3.88026 c -1.54935,-0.91481 -3.23389,-1.62632 -5.02204,-2.0852 v -5.48289 h -5.34869 v 15.54078 c 0.16184,-0.009 0.31677,-0.0474 0.47961,-0.0474 4.88882,0 8.85296,3.96414 8.85296,8.85295 0,4.88882 -3.96414,8.85296 -8.85296,8.85296 -0.1648,0 -0.31777,-0.0395 -0.47961,-0.0494 v 15.54079 h 5.34869 v -5.4829 c 1.78618,-0.45888 3.4717,-1.17039 5.02006,-2.08618 l 3.88224,3.88224 6.8852,-6.8852 -3.88026,-3.88224 c 0.9148,-1.54933 1.62631,-3.23388 2.08618,-5.02204 h 5.48289 z"
     id="path350" />
  <path
     inkscape:connector-curvature="0"
     style="fill:#2b9ed8;stroke-width:0.9868421"
     d="m 300.85623,227.79799 v -18.08386 h -10.18224 c -0.85362,-3.31776 -2.17401,-6.44803 -3.87335,-9.32468 l 7.20789,-7.20789 -12.78849,-12.78849 -7.20789,7.2079 c -2.87862,-1.69934 -6.00691,-3.01974 -9.32467,-3.87335 V 173.54538 H 246.6036 v 10.18224 c -3.31776,0.85361 -6.44804,2.17401 -9.32468,3.87335 l -7.20789,-7.2079 -12.78848,12.78849 7.20788,7.20789 c -1.69932,2.87665 -3.01972,6.00692 -3.87333,9.32468 h -10.18224 v 18.08386 h 10.18224 c 0.85361,3.31875 2.17401,6.44803 3.87333,9.32566 l -7.2059,7.20593 12.78847,12.78651 7.20592,-7.20593 c 2.87862,1.69935 6.00692,3.01974 9.32567,3.87533 v 10.18224 h 18.08388 v -10.18224 c 3.31776,-0.85361 6.44802,-2.17401 9.32467,-3.87335 l 7.20789,7.20789 12.78849,-12.78849 -7.2079,-7.20789 c 1.70131,-2.87862 3.01974,-6.00691 3.87336,-9.32566 z m -45.20921,7.39935 c -9.07993,0 -16.44079,-7.36086 -16.44079,-16.44078 0,-9.07894 7.36086,-16.44079 16.44079,-16.44079 9.07895,0 16.44078,7.36086 16.44078,16.44079 -9.8e-4,9.07893 -7.36183,16.44078 -16.44078,16.44078 z"
     id="path352" />
  <path
     inkscape:connector-curvature="0"
     style="fill:#386895;stroke-width:0.9868421"
     d="m 300.85623,227.79799 v -18.08386 h -10.18224 c -0.85362,-3.31776 -2.17401,-6.44803 -3.87335,-9.32468 l 7.20789,-7.20789 -12.78849,-12.78849 -7.20789,7.2079 c -2.87862,-1.70132 -6.00691,-3.01974 -9.32467,-3.87335 v -10.18224 h -9.40757 v 28.78815 c 0.12237,-0.003 0.24177,-0.0188 0.36612,-0.0188 9.07895,0 16.44078,7.36085 16.44078,16.44079 0,9.07992 -7.36084,16.44077 -16.44078,16.44077 -0.12237,0 -0.24375,-0.0158 -0.36612,-0.0188 v 28.78815 h 9.40757 V 253.7834 c 3.31776,-0.85361 6.44802,-2.17401 9.32467,-3.87334 l 7.20789,7.20789 12.78849,-12.78849 -7.20789,-7.20789 c 1.70131,-2.87862 3.01973,-6.00888 3.87335,-9.32567 h 10.18224 z"
     id="path354" />
</svg>
