<svg xmlns="http://www.w3.org/2000/svg" height="512pt" version="1.1" viewBox="0 0 512 512" width="512pt">
<g id="surface1">
<path d="M 512 256 C 512 397.386719 397.386719 512 256 512 C 114.613281 512 0 397.386719 0 256 C 0 114.613281 114.613281 0 256 0 C 397.386719 0 512 114.613281 512 256 Z M 512 256 " style=" stroke:none;fill-rule:nonzero;fill:rgb(61.960784%,41.176471%,88.627451%);fill-opacity:1;" />
<path d="M 512 256 C 512 282.050781 508.109375 307.191406 500.871094 330.871094 C 468.859375 435.71875 371.328125 512 256 512 C 151.441406 512 61.511719 449.300781 21.769531 359.449219 C 7.769531 327.820312 0 292.820312 0 256 C 0 209.78125 12.25 166.429688 33.679688 129 C 77.800781 206.070312 160.839844 258 256 258 C 351.160156 258 434.210938 206.070312 478.320312 129 C 499.75 166.429688 512 209.78125 512 256 Z M 512 256 " style=" stroke:none;fill-rule:nonzero;fill:rgb(55.686275%,30.980392%,82.352941%);fill-opacity:1;" />
<path d="M 30.742188 377.703125 C 37.898438 390.921875 46.171875 403.441406 55.460938 415.128906 C 102.359375 474.148438 174.761719 512 256 512 C 337.238281 512 409.640625 474.148438 456.539062 415.128906 C 465.828125 403.441406 474.101562 390.921875 481.257812 377.703125 Z M 30.742188 377.703125 " style=" stroke:none;fill-rule:nonzero;fill:rgb(43.921569%,21.960784%,72.941176%);fill-opacity:1;" />
<path d="M 488.929688 206.328125 L 488.929688 362.328125 C 483.199219 374.871094 476.488281 386.871094 468.890625 398.21875 L 227.21875 398.21875 L 227.21875 206.328125 Z M 488.929688 206.328125 " style=" stroke:none;fill-rule:nonzero;fill:rgb(45.490196%,49.411765%,61.960784%);fill-opacity:1;" />
<path d="M 223.589844 327.109375 C 223.191406 327.378906 222.78125 327.648438 222.378906 327.910156 C 222.238281 328.011719 222.089844 328.109375 221.941406 328.199219 C 221.800781 328.300781 221.648438 328.390625 221.5 328.480469 C 219.488281 329.769531 217.398438 330.960938 215.261719 332.050781 C 214.929688 332.21875 214.609375 332.378906 214.269531 332.539062 C 212.960938 333.191406 211.628906 333.800781 210.28125 334.371094 L 210.28125 343.75 C 213.328125 344.488281 216.339844 345.328125 219.300781 346.289062 C 219.871094 346.46875 220.429688 346.660156 220.988281 346.851562 C 221.691406 347.078125 222.390625 347.328125 223.078125 347.578125 C 224.46875 348.078125 225.851562 348.601562 227.21875 349.148438 L 227.21875 324.460938 C 226.039062 325.378906 224.828125 326.261719 223.589844 327.109375 Z M 512 256 C 512 231.109375 508.449219 207.050781 501.820312 184.300781 L 204.160156 184.300781 L 204.160156 420.238281 L 452.371094 420.238281 C 458.261719 413.210938 463.769531 405.859375 468.890625 398.21875 L 227.21875 398.21875 L 227.21875 206.328125 L 488.929688 206.328125 L 488.929688 362.328125 C 503.75 329.949219 512 293.941406 512 256 Z M 223.589844 327.109375 C 223.191406 327.378906 222.78125 327.648438 222.378906 327.910156 C 222.238281 328.011719 222.089844 328.109375 221.941406 328.199219 C 221.800781 328.300781 221.648438 328.390625 221.5 328.480469 C 219.488281 329.769531 217.398438 330.960938 215.261719 332.050781 C 214.929688 332.21875 214.609375 332.378906 214.269531 332.539062 C 212.960938 333.191406 211.628906 333.800781 210.28125 334.371094 L 210.28125 343.75 C 213.328125 344.488281 216.339844 345.328125 219.300781 346.289062 C 219.871094 346.46875 220.429688 346.660156 220.988281 346.851562 C 221.691406 347.078125 222.390625 347.328125 223.078125 347.578125 C 224.46875 348.078125 225.851562 348.601562 227.21875 349.148438 L 227.21875 324.460938 C 226.039062 325.378906 224.828125 326.261719 223.589844 327.109375 Z M 223.589844 327.109375 C 223.191406 327.378906 222.78125 327.648438 222.378906 327.910156 C 222.238281 328.011719 222.089844 328.109375 221.941406 328.199219 C 221.800781 328.300781 221.648438 328.390625 221.5 328.480469 C 219.488281 329.769531 217.398438 330.960938 215.261719 332.050781 C 214.929688 332.21875 214.609375 332.378906 214.269531 332.539062 C 212.960938 333.191406 211.628906 333.800781 210.28125 334.371094 L 210.28125 343.75 C 213.328125 344.488281 216.339844 345.328125 219.300781 346.289062 C 219.871094 346.46875 220.429688 346.660156 220.988281 346.851562 C 221.691406 347.078125 222.390625 347.328125 223.078125 347.578125 C 224.46875 348.078125 225.851562 348.601562 227.21875 349.148438 L 227.21875 324.460938 C 226.039062 325.378906 224.828125 326.261719 223.589844 327.109375 Z M 223.589844 327.109375 C 223.191406 327.378906 222.78125 327.648438 222.378906 327.910156 C 222.238281 328.011719 222.089844 328.109375 221.941406 328.199219 C 221.800781 328.300781 221.648438 328.390625 221.5 328.480469 C 219.488281 329.769531 217.398438 330.960938 215.261719 332.050781 C 214.929688 332.21875 214.609375 332.378906 214.269531 332.539062 C 212.960938 333.191406 211.628906 333.800781 210.28125 334.371094 L 210.28125 343.75 C 213.328125 344.488281 216.339844 345.328125 219.300781 346.289062 C 219.871094 346.46875 220.429688 346.660156 220.988281 346.851562 C 221.691406 347.078125 222.390625 347.328125 223.078125 347.578125 C 224.46875 348.078125 225.851562 348.601562 227.21875 349.148438 L 227.21875 324.460938 C 226.039062 325.378906 224.828125 326.261719 223.589844 327.109375 Z M 223.589844 327.109375 " style=" stroke:none;fill-rule:nonzero;fill:rgb(19.607843%,23.137255%,35.294118%);fill-opacity:1;" />
<path d="M 488.929688 206.328125 L 488.929688 362.328125 C 483.199219 374.871094 476.488281 386.871094 468.890625 398.21875 L 356.46875 398.21875 L 356.46875 206.328125 Z M 488.929688 206.328125 " style=" stroke:none;fill-rule:nonzero;fill:rgb(27.843137%,30.980392%,43.529412%);fill-opacity:1;" />
<path d="M 257.996094 309.417969 C 257.996094 351.96875 223.503906 386.464844 180.953125 386.464844 C 138.402344 386.464844 103.90625 351.96875 103.90625 309.417969 C 103.90625 266.867188 138.402344 232.371094 180.953125 232.371094 C 223.503906 232.371094 257.996094 266.867188 257.996094 309.417969 Z M 257.996094 309.417969 " style=" stroke:none;fill-rule:nonzero;fill:rgb(19.607843%,23.137255%,35.294118%);fill-opacity:1;" />
<path d="M 305.75 465.109375 L 305.75 507.160156 C 289.660156 510.339844 273.019531 512 256 512 L 254.238281 512 L 254.238281 511.988281 C 229.121094 511.820312 204.871094 508.039062 181.96875 501.128906 C 135.28125 487.050781 94.210938 459.988281 62.96875 424.148438 C 71.171875 400.488281 86.300781 380.070312 105.929688 365.300781 C 108.949219 363.03125 112.078125 360.878906 115.308594 358.890625 C 115.601562 358.699219 115.898438 358.519531 116.191406 358.351562 C 116.679688 358.050781 117.171875 357.761719 117.660156 357.46875 C 118.359375 357.058594 119.058594 356.648438 119.769531 356.25 C 119.878906 356.191406 120 356.121094 120.121094 356.058594 C 120.621094 355.78125 121.121094 355.5 121.628906 355.230469 C 122.871094 354.550781 124.128906 353.898438 125.398438 353.269531 C 126.03125 352.949219 126.671875 352.640625 127.308594 352.339844 C 128.589844 351.730469 129.878906 351.140625 131.191406 350.570312 C 131.789062 350.320312 132.390625 350.058594 132.988281 349.808594 C 133.601562 349.558594 134.199219 349.308594 134.820312 349.070312 C 135.429688 348.820312 136.039062 348.578125 136.660156 348.351562 C 137.128906 348.171875 137.609375 347.988281 138.089844 347.820312 C 138.851562 347.539062 139.609375 347.269531 140.378906 347.011719 C 144.039062 345.75 147.78125 344.648438 151.589844 343.730469 C 154.71875 342.980469 157.890625 342.351562 161.101562 341.839844 C 161.488281 341.78125 161.890625 341.710938 162.289062 341.648438 L 163.761719 341.441406 C 169.371094 340.671875 175.101562 340.269531 180.921875 340.269531 C 180.921875 340.269531 180.921875 340.269531 180.929688 340.269531 C 181.269531 340.269531 181.621094 340.269531 181.96875 340.28125 C 187.75 340.320312 193.449219 340.769531 199.03125 341.589844 L 199.039062 341.589844 C 199.878906 341.710938 200.710938 341.839844 201.539062 341.980469 C 202.421875 342.121094 203.289062 342.28125 204.160156 342.441406 C 206.21875 342.828125 208.261719 343.269531 210.28125 343.75 C 213.328125 344.488281 216.339844 345.328125 219.300781 346.289062 C 219.871094 346.46875 220.429688 346.660156 220.988281 346.851562 C 221.691406 347.078125 222.390625 347.328125 223.078125 347.578125 C 224.46875 348.078125 225.851562 348.601562 227.21875 349.148438 C 227.800781 349.378906 228.371094 349.609375 228.941406 349.851562 C 229.121094 349.921875 229.289062 350 229.46875 350.070312 C 229.988281 350.300781 230.519531 350.519531 231.039062 350.75 C 231.671875 351.03125 232.300781 351.308594 232.929688 351.601562 C 234.179688 352.171875 235.421875 352.769531 236.648438 353.378906 C 237.28125 353.691406 237.898438 354.011719 238.519531 354.339844 C 239.121094 354.648438 239.71875 354.960938 240.308594 355.289062 C 240.910156 355.609375 241.511719 355.941406 242.109375 356.28125 C 242.769531 356.648438 243.429688 357.03125 244.089844 357.421875 C 244.621094 357.730469 245.148438 358.050781 245.679688 358.371094 C 249.699219 360.820312 253.570312 363.488281 257.28125 366.359375 C 263.761719 371.378906 269.738281 377.019531 275.109375 383.199219 C 276.738281 385.070312 278.308594 386.980469 279.828125 388.941406 C 280.601562 389.941406 281.359375 390.960938 282.101562 391.988281 C 282.359375 392.351562 282.621094 392.710938 282.878906 393.078125 C 284.070312 394.761719 285.21875 396.46875 286.328125 398.21875 C 287.550781 400.128906 288.71875 402.078125 289.820312 404.058594 C 289.960938 404.289062 290.078125 404.511719 290.199219 404.738281 C 292.351562 408.609375 294.289062 412.589844 296.011719 416.691406 C 296.03125 416.730469 296.050781 416.769531 296.058594 416.820312 C 296.121094 416.941406 296.171875 417.058594 296.21875 417.191406 C 296.269531 417.308594 296.320312 417.429688 296.371094 417.558594 L 296.371094 417.570312 C 296.738281 418.460938 297.089844 419.339844 297.441406 420.238281 C 298.710938 423.539062 299.851562 426.898438 300.828125 430.328125 C 304.039062 441.371094 305.75 453.039062 305.75 465.109375 Z M 305.75 465.109375 " style=" stroke:none;fill-rule:nonzero;fill:rgb(100%,91.372549%,33.333333%);fill-opacity:1;" />
<path d="M 305.75 465.109375 L 305.75 507.160156 C 289.660156 510.339844 273.019531 512 256 512 L 254.238281 512 L 254.238281 511.988281 C 229.121094 511.820312 204.871094 508.039062 181.96875 501.128906 L 181.96875 340.28125 C 187.75 340.320312 193.449219 340.769531 199.03125 341.589844 L 199.039062 341.589844 C 199.878906 341.710938 200.710938 341.839844 201.539062 341.980469 C 202.421875 342.121094 203.289062 342.28125 204.160156 342.441406 C 206.21875 342.828125 208.261719 343.269531 210.28125 343.75 C 213.328125 344.488281 216.339844 345.328125 219.300781 346.289062 C 219.871094 346.46875 220.429688 346.660156 220.988281 346.851562 C 221.691406 347.078125 222.390625 347.328125 223.078125 347.578125 C 224.46875 348.078125 225.851562 348.601562 227.21875 349.148438 C 227.800781 349.378906 228.371094 349.609375 228.941406 349.851562 C 229.121094 349.921875 229.289062 350 229.46875 350.070312 C 229.988281 350.300781 230.519531 350.519531 231.039062 350.75 C 231.671875 351.03125 232.300781 351.308594 232.929688 351.601562 C 234.179688 352.171875 235.421875 352.769531 236.648438 353.378906 C 237.28125 353.691406 237.898438 354.011719 238.519531 354.339844 C 239.121094 354.648438 239.71875 354.960938 240.308594 355.289062 C 240.910156 355.609375 241.511719 355.941406 242.109375 356.28125 C 242.769531 356.648438 243.429688 357.03125 244.089844 357.421875 C 244.621094 357.730469 245.148438 358.050781 245.679688 358.371094 C 249.699219 360.820312 253.570312 363.488281 257.28125 366.359375 C 263.761719 371.378906 269.738281 377.019531 275.109375 383.199219 C 276.738281 385.070312 278.308594 386.980469 279.828125 388.941406 C 280.601562 389.941406 281.359375 390.960938 282.101562 391.988281 C 282.359375 392.351562 282.621094 392.710938 282.878906 393.078125 C 284.070312 394.761719 285.21875 396.46875 286.328125 398.21875 C 287.550781 400.128906 288.71875 402.078125 289.820312 404.058594 C 289.960938 404.289062 290.078125 404.511719 290.199219 404.738281 C 292.351562 408.609375 294.289062 412.589844 296.011719 416.691406 C 296.03125 416.730469 296.050781 416.769531 296.058594 416.820312 C 296.121094 416.941406 296.171875 417.058594 296.21875 417.191406 C 296.269531 417.308594 296.320312 417.429688 296.371094 417.558594 L 296.371094 417.570312 C 296.738281 418.460938 297.089844 419.339844 297.441406 420.238281 C 298.710938 423.539062 299.851562 426.898438 300.828125 430.328125 C 304.039062 441.371094 305.75 453.039062 305.75 465.109375 Z M 305.75 465.109375 " style=" stroke:none;fill-rule:nonzero;fill:rgb(100%,81.960784%,7.058824%);fill-opacity:1;" />
<path d="M 181.964844 373.289062 C 181.964844 394.257812 198.96875 411.261719 219.9375 411.261719 C 240.90625 411.261719 257.910156 394.257812 257.910156 373.289062 C 257.910156 370.925781 257.691406 368.605469 257.277344 366.359375 C 240.6875 353.5 220.769531 344.738281 199.039062 341.585938 L 199.03125 341.585938 C 188.753906 348.382812 181.964844 360.039062 181.964844 373.289062 Z M 181.964844 373.289062 " style=" stroke:none;fill-rule:nonzero;fill:rgb(81.568627%,96.470588%,100%);fill-opacity:1;" />
<path d="M 105.085938 373.289062 C 105.085938 394.257812 122.089844 411.261719 143.070312 411.261719 C 164.039062 411.261719 181.042969 394.257812 181.042969 373.289062 C 181.042969 359.945312 174.160156 348.21875 163.757812 341.441406 C 142.246094 344.398438 122.488281 352.835938 105.933594 365.300781 C 105.375 367.875 105.085938 370.546875 105.085938 373.289062 Z M 105.085938 373.289062 " style=" stroke:none;fill-rule:nonzero;fill:rgb(100%,100%,100%);fill-opacity:1;" />
<path d="M 267.914062 232.371094 C 278.613281 232.371094 287.285156 241.042969 287.285156 251.742188 C 287.285156 271.230469 271.488281 287.027344 252.003906 287.027344 L 252.003906 232.328125 Z M 267.914062 232.371094 " style=" stroke:none;fill-rule:nonzero;fill:rgb(100%,65.882353%,47.843137%);fill-opacity:1;" />
<path d="M 93.945312 232.371094 C 83.246094 232.371094 74.574219 241.042969 74.574219 251.742188 C 74.574219 271.230469 90.371094 287.027344 109.859375 287.027344 L 109.859375 232.328125 Z M 93.945312 232.371094 " style=" stroke:none;fill-rule:nonzero;fill:rgb(100%,65.882353%,47.843137%);fill-opacity:1;" />
<path d="M 151.585938 302.183594 L 151.585938 343.9375 C 151.585938 360.140625 164.722656 373.285156 180.933594 373.285156 C 197.136719 373.285156 210.277344 360.140625 210.277344 343.9375 L 210.277344 302.183594 Z M 151.585938 302.183594 " style=" stroke:none;fill-rule:nonzero;fill:rgb(89.019608%,51.372549%,35.294118%);fill-opacity:1;" />
<path d="M 151.585938 302.183594 L 151.585938 343.9375 C 151.585938 360.140625 164.722656 373.285156 180.933594 373.285156 L 180.933594 302.183594 Z M 151.585938 302.183594 " style=" stroke:none;fill-rule:nonzero;fill:rgb(100%,65.882353%,47.843137%);fill-opacity:1;" />
<path d="M 105.214844 236.007812 L 105.214844 264.554688 C 105.214844 306.355469 139.101562 340.265625 180.917969 340.273438 C 180.925781 340.273438 180.925781 340.273438 180.933594 340.273438 C 222.734375 340.273438 256.644531 306.363281 256.644531 264.554688 L 256.644531 236.007812 C 256.644531 231.707031 256.292969 227.488281 255.582031 223.386719 C 250.644531 193.890625 228.636719 170.1875 200.074219 162.726562 C 193.964844 161.140625 187.535156 160.296875 180.933594 160.296875 C 180.925781 160.296875 180.925781 160.296875 180.917969 160.296875 C 174.296875 160.296875 167.878906 161.140625 161.765625 162.742188 C 133.203125 170.183594 111.21875 193.890625 106.273438 223.386719 C 105.570312 227.488281 105.214844 231.707031 105.214844 236.007812 Z M 105.214844 236.007812 " style=" stroke:none;fill-rule:nonzero;fill:rgb(100%,65.882353%,47.843137%);fill-opacity:1;" />
<path d="M 243.8125 239.242188 L 256.644531 239.242188 L 256.644531 250.972656 L 243.8125 250.972656 Z M 243.8125 239.242188 " style=" stroke:none;fill-rule:nonzero;fill:rgb(19.607843%,23.137255%,35.294118%);fill-opacity:1;" />
<path d="M 105.214844 236.007812 L 105.214844 264.554688 C 105.214844 306.355469 139.101562 340.265625 180.917969 340.273438 L 180.917969 160.296875 C 174.296875 160.296875 167.878906 161.140625 161.765625 162.742188 C 133.203125 170.1875 111.21875 193.890625 106.273438 223.390625 C 105.570312 227.488281 105.214844 231.707031 105.214844 236.007812 Z M 105.214844 236.007812 " style=" stroke:none;fill-rule:nonzero;fill:rgb(100%,75.294118%,64.313725%);fill-opacity:1;" />
<path d="M 105.214844 239.242188 L 118.046875 239.242188 L 118.046875 250.972656 L 105.214844 250.972656 Z M 105.214844 239.242188 " style=" stroke:none;fill-rule:nonzero;fill:rgb(19.607843%,23.137255%,35.294118%);fill-opacity:1;" />
<path d="M 214.003906 255.0625 C 214.003906 260.210938 209.832031 264.386719 204.683594 264.386719 C 199.535156 264.386719 195.359375 260.210938 195.359375 255.0625 C 195.359375 249.914062 199.535156 245.742188 204.683594 245.742188 C 209.832031 245.742188 214.003906 249.914062 214.003906 255.0625 Z M 214.003906 255.0625 " style=" stroke:none;fill-rule:nonzero;fill:rgb(19.607843%,23.137255%,35.294118%);fill-opacity:1;" />
<path d="M 166.5 255.0625 C 166.5 260.210938 162.328125 264.386719 157.179688 264.386719 C 152.03125 264.386719 147.855469 260.210938 147.855469 255.0625 C 147.855469 249.914062 152.03125 245.742188 157.179688 245.742188 C 162.328125 245.742188 166.5 249.914062 166.5 255.0625 Z M 166.5 255.0625 " style=" stroke:none;fill-rule:nonzero;fill:rgb(19.607843%,23.137255%,35.294118%);fill-opacity:1;" />
<path d="M 158.632812 293.015625 C 152.046875 293.015625 148.535156 300.921875 153.066406 305.703125 C 155.90625 308.703125 159.226562 311.242188 162.898438 313.199219 C 168.269531 316.074219 174.410156 317.699219 180.929688 317.699219 C 187.453125 317.699219 193.589844 316.074219 198.964844 313.199219 C 202.636719 311.242188 205.953125 308.703125 208.792969 305.703125 C 213.324219 300.921875 209.816406 293.015625 203.226562 293.015625 Z M 158.632812 293.015625 " style=" stroke:none;fill-rule:nonzero;fill:rgb(19.607843%,23.137255%,35.294118%);fill-opacity:1;" />
<path d="M 88.972656 229.015625 C 88.972656 233.433594 92.292969 237.167969 96.683594 237.683594 C 100.492188 238.132812 104.367188 238.355469 108.289062 238.355469 C 137.015625 238.355469 162.890625 226.089844 180.917969 206.476562 C 198.960938 226.089844 224.828125 238.355469 253.554688 238.355469 C 257.429688 238.355469 261.253906 238.140625 265.015625 237.699219 C 267.257812 237.445312 269.21875 236.351562 270.632812 234.773438 C 272.039062 233.1875 272.890625 231.117188 272.890625 228.847656 C 272.890625 194.59375 254.398438 162.613281 224.042969 146.75 C 217.902344 143.546875 211.363281 140.996094 204.519531 139.207031 C 196.992188 137.257812 189.070312 136.214844 180.929688 136.214844 C 180.925781 136.214844 180.925781 136.214844 180.914062 136.214844 C 172.761719 136.214844 164.847656 137.257812 157.328125 139.230469 C 153.417969 140.246094 149.609375 141.519531 145.914062 143.007812 C 128.535156 150.046875 114.300781 162.175781 104.410156 177.234375 C 94.523438 192.277344 88.972656 210.265625 88.972656 229.015625 Z M 88.972656 229.015625 " style=" stroke:none;fill-rule:nonzero;fill:rgb(19.607843%,23.137255%,35.294118%);fill-opacity:1;" />
<path d="M 88.972656 229.015625 C 88.972656 233.433594 92.292969 237.167969 96.683594 237.683594 C 100.492188 238.132812 104.367188 238.355469 108.289062 238.355469 C 137.015625 238.355469 162.890625 226.089844 180.917969 206.476562 L 180.917969 136.214844 C 172.765625 136.214844 164.847656 137.257812 157.332031 139.230469 C 153.417969 140.246094 149.609375 141.519531 145.914062 143.007812 C 128.535156 150.046875 114.300781 162.175781 104.410156 177.234375 C 94.523438 192.277344 88.972656 210.265625 88.972656 229.015625 Z M 88.972656 229.015625 " style=" stroke:none;fill-rule:nonzero;fill:rgb(27.843137%,30.980392%,43.529412%);fill-opacity:1;" />
<path d="M 180.929688 281.601562 C 177.273438 281.601562 174.308594 278.636719 174.308594 274.980469 L 174.308594 246.800781 C 174.308594 243.144531 177.273438 240.179688 180.929688 240.179688 C 184.589844 240.179688 187.554688 243.144531 187.554688 246.800781 L 187.554688 274.980469 C 187.554688 278.636719 184.589844 281.601562 180.929688 281.601562 Z M 180.929688 281.601562 " style=" stroke:none;fill-rule:nonzero;fill:rgb(89.019608%,51.372549%,35.294118%);fill-opacity:1;" />
<path d="M 198.960938 313.195312 C 193.589844 316.074219 187.457031 317.703125 180.933594 317.703125 C 180.925781 317.703125 180.925781 317.703125 180.914062 317.703125 C 174.402344 317.703125 168.257812 316.074219 162.894531 313.195312 C 167.386719 308.339844 173.789062 305.300781 180.914062 305.289062 C 180.925781 305.289062 180.925781 305.289062 180.933594 305.289062 C 188.058594 305.289062 194.480469 308.339844 198.960938 313.195312 Z M 198.960938 313.195312 " style=" stroke:none;fill-rule:nonzero;fill:rgb(100%,20.392157%,27.058824%);fill-opacity:1;" />
<path d="M 198.960938 313.195312 C 193.589844 316.074219 187.457031 317.703125 180.933594 317.703125 C 180.925781 317.703125 180.925781 317.703125 180.914062 317.703125 L 180.914062 305.289062 C 180.925781 305.289062 180.925781 305.289062 180.933594 305.289062 C 188.058594 305.289062 194.480469 308.339844 198.960938 313.195312 Z M 198.960938 313.195312 " style=" stroke:none;fill-rule:nonzero;fill:rgb(86.666667%,7.058824%,39.607843%);fill-opacity:1;" />
<path d="M 243.808594 239.25 L 194.859375 239.25 C 192.71875 239.25 190.75 239.851562 189.089844 240.878906 C 186.628906 242.421875 183.828125 243.320312 180.941406 243.378906 C 180.929688 243.378906 180.929688 243.378906 180.921875 243.378906 C 180.808594 243.390625 180.699219 243.390625 180.601562 243.390625 C 177.578125 243.390625 174.660156 242.480469 172.101562 240.878906 C 170.441406 239.851562 168.46875 239.25 166.320312 239.25 L 118.039062 239.25 C 116.46875 239.269531 115.210938 240.539062 115.210938 242.121094 L 115.210938 248.238281 C 115.210938 249.480469 116.011719 250.589844 117.199219 250.96875 C 118.28125 251.308594 119.070312 252.238281 119.25 253.359375 C 119.570312 255.390625 120.109375 258.75 120.558594 261.570312 L 120.558594 261.578125 C 121 264.308594 121.359375 266.511719 121.359375 266.511719 C 122.558594 273.988281 129.019531 279.488281 136.601562 279.488281 L 157.640625 279.488281 C 164.511719 279.488281 170.550781 274.960938 172.460938 268.371094 C 172.460938 268.371094 174.890625 260.011719 176.160156 255.621094 C 176.738281 253.628906 178.558594 252.21875 180.640625 252.269531 C 180.691406 252.269531 180.738281 252.269531 180.800781 252.28125 C 180.828125 252.28125 180.878906 252.28125 180.921875 252.289062 L 180.941406 252.289062 C 182.859375 252.429688 184.480469 253.769531 185.019531 255.621094 C 186.261719 259.898438 188.71875 268.371094 188.71875 268.371094 C 190.640625 274.960938 196.679688 279.488281 203.550781 279.488281 L 224.589844 279.488281 C 225.488281 279.488281 226.371094 279.410156 227.21875 279.261719 C 233.628906 278.160156 238.769531 273.109375 239.839844 266.511719 C 239.839844 266.511719 240.261719 263.871094 240.738281 260.828125 C 241.101562 258.589844 241.488281 256.140625 241.78125 254.351562 C 242.039062 252.761719 243.160156 251.460938 244.691406 250.96875 C 245.28125 250.78125 245.78125 250.410156 246.128906 249.929688 C 246.480469 249.449219 246.679688 248.859375 246.679688 248.238281 L 246.679688 242.121094 C 246.679688 240.53125 245.390625 239.25 243.808594 239.25 Z M 171.730469 253.871094 L 169.601562 261.199219 L 168.070312 266.488281 C 166.980469 270.25 164.269531 273.210938 160.851562 274.710938 C 159.25 275.410156 157.5 275.789062 155.671875 275.789062 L 138.089844 275.789062 C 131.738281 275.789062 126.351562 271.199219 125.351562 264.929688 L 124.128906 257.390625 L 123.390625 252.769531 C 123.011719 250.449219 123.539062 248.21875 124.699219 246.398438 C 126.308594 243.859375 129.148438 242.148438 132.441406 242.148438 L 162.929688 242.148438 C 169.039062 242.148438 173.441406 248.011719 171.730469 253.871094 Z M 235.871094 258.578125 L 234.898438 264.628906 L 234.859375 264.878906 C 234.140625 269.351562 231.171875 272.960938 227.21875 274.640625 C 225.679688 275.300781 224 275.648438 222.230469 275.648438 L 204.78125 275.648438 C 204.570312 275.648438 204.371094 275.640625 204.160156 275.628906 C 198.730469 275.371094 194.03125 271.699219 192.488281 266.429688 L 188.859375 253.910156 C 187.28125 248.460938 191.011719 243.011719 196.480469 242.359375 C 196.839844 242.308594 197.210938 242.289062 197.578125 242.289062 L 227.820312 242.289062 C 233.421875 242.289062 237.691406 247.300781 236.800781 252.820312 L 236.308594 255.839844 Z M 235.871094 258.578125 " style=" stroke:none;fill-rule:nonzero;fill:rgb(25.098039%,29.019608%,40%);fill-opacity:1;" />
<path d="M 275.492188 382.8125 C 263.101562 395.207031 261.445312 414.730469 271.578125 429.03125 L 283.359375 445.664062 L 287.171875 441.851562 C 299.207031 429.816406 299.207031 410.304688 287.171875 398.269531 L 292.398438 393.042969 C 298.738281 386.703125 299.714844 377.027344 295.320312 369.660156 C 294.058594 367.542969 291.15625 367.152344 289.410156 368.894531 Z M 275.492188 382.8125 " style=" stroke:none;fill-rule:nonzero;fill:rgb(100%,65.882353%,47.843137%);fill-opacity:1;" />
<path d="M 286.617188 396.511719 L 279.429688 389.324219 L 369.363281 303.761719 L 371.90625 306.304688 Z M 286.617188 396.511719 " style=" stroke:none;fill-rule:nonzero;fill:rgb(19.607843%,23.137255%,35.294118%);fill-opacity:1;" />
<path d="M 318.351562 402.328125 L 314.328125 418.601562 L 314.328125 418.609375 L 313.929688 420.238281 L 309.070312 439.910156 L 308.398438 442.628906 L 308.398438 506.628906 C 307.519531 506.808594 306.640625 506.988281 305.75 507.160156 C 289.660156 510.339844 273.019531 512 256 512 L 254.238281 512 L 254.238281 511.988281 L 277.730469 437.710938 L 281.289062 426.429688 L 290.808594 420.238281 L 294.699219 417.710938 L 296.03125 416.851562 L 296.058594 416.820312 L 299.058594 414.871094 L 299.101562 414.839844 Z M 318.351562 402.328125 " style=" stroke:none;fill-rule:nonzero;fill:rgb(100%,65.882353%,47.843137%);fill-opacity:1;" />
<path d="M 309.9375 385 L 292.523438 402.417969 C 289.898438 405.039062 285.644531 405.039062 283.023438 402.417969 C 280.398438 399.792969 280.398438 395.539062 283.023438 392.917969 L 300.441406 375.5 C 303.0625 372.878906 307.316406 372.878906 309.9375 375.5 C 312.5625 378.125 312.5625 382.378906 309.9375 385 Z M 309.9375 385 " style=" stroke:none;fill-rule:nonzero;fill:rgb(100%,75.294118%,64.313725%);fill-opacity:1;" />
<path d="M 315.460938 398.472656 L 298.046875 415.890625 C 295.421875 418.515625 291.167969 418.515625 288.546875 415.890625 C 285.921875 413.269531 285.921875 409.015625 288.546875 406.390625 L 305.964844 388.976562 C 308.585938 386.351562 312.839844 386.351562 315.460938 388.976562 C 318.085938 391.597656 318.085938 395.851562 315.460938 398.472656 Z M 315.460938 398.472656 " style=" stroke:none;fill-rule:nonzero;fill:rgb(100%,75.294118%,64.313725%);fill-opacity:1;" />
<path d="M 321.902344 411.03125 L 304.484375 428.449219 C 301.863281 431.070312 297.609375 431.070312 294.984375 428.449219 C 292.363281 425.824219 292.363281 421.574219 294.984375 418.949219 L 312.402344 401.53125 C 315.027344 398.910156 319.277344 398.910156 321.902344 401.53125 C 324.523438 404.15625 324.523438 408.410156 321.902344 411.03125 Z M 321.902344 411.03125 " style=" stroke:none;fill-rule:nonzero;fill:rgb(100%,75.294118%,64.313725%);fill-opacity:1;" />
<path d="M 331.398438 420.53125 L 313.984375 437.949219 C 311.359375 440.570312 307.105469 440.570312 304.484375 437.949219 C 301.859375 435.324219 301.859375 431.070312 304.484375 428.449219 L 321.902344 411.03125 C 324.523438 408.410156 328.777344 408.410156 331.398438 411.03125 C 334.023438 413.65625 334.023438 417.90625 331.398438 420.53125 Z M 331.398438 420.53125 " style=" stroke:none;fill-rule:nonzero;fill:rgb(100%,75.294118%,64.313725%);fill-opacity:1;" />
<path d="M 316.761719 280.75 L 316.761719 256.628906 L 310.640625 256.628906 L 294.148438 280.78125 L 294.148438 287.148438 L 309.710938 287.148438 L 309.710938 294.800781 L 316.761719 294.800781 L 316.761719 287.148438 L 321.480469 287.148438 L 321.480469 280.75 Z M 309.710938 280.75 L 300.96875 280.75 L 309.710938 267.761719 Z M 309.710938 280.75 " style=" stroke:none;fill-rule:nonzero;fill:rgb(100%,100%,100%);fill-opacity:1;" />
<path d="M 339.628906 272.628906 L 339.628906 262.75 L 332.988281 262.75 L 332.988281 272.628906 L 323.039062 272.628906 L 323.039062 279.449219 L 332.988281 279.449219 L 332.988281 289.328125 L 339.628906 289.328125 L 339.628906 279.449219 L 349.621094 279.449219 L 349.621094 272.628906 Z M 339.628906 272.628906 " style=" stroke:none;fill-rule:nonzero;fill:rgb(100%,100%,100%);fill-opacity:1;" />
<path d="M 376.351562 280.75 L 376.351562 256.628906 L 370.230469 256.628906 L 356.46875 276.769531 L 353.730469 280.78125 L 353.730469 287.148438 L 369.289062 287.148438 L 369.289062 294.800781 L 376.351562 294.800781 L 376.351562 287.148438 L 381.070312 287.148438 L 381.070312 280.75 Z M 369.289062 280.75 L 360.550781 280.75 L 369.289062 267.761719 Z M 369.289062 280.75 " style=" stroke:none;fill-rule:nonzero;fill:rgb(100%,100%,100%);fill-opacity:1;" />
<path d="M 389.609375 278.441406 L 389.609375 285.160156 L 416.191406 285.160156 L 416.191406 278.441406 Z M 389.609375 266.949219 L 389.609375 273.640625 L 416.191406 273.640625 L 416.191406 266.949219 Z M 389.609375 266.949219 " style=" stroke:none;fill-rule:nonzero;fill:rgb(100%,100%,100%);fill-opacity:1;" />
<path d="M 446.351562 278 C 445.25 276.378906 443.648438 275.140625 441.539062 274.289062 C 443.199219 273.570312 444.488281 272.519531 445.410156 271.140625 C 446.320312 269.769531 446.78125 268.199219 446.78125 266.429688 C 446.78125 263.601562 445.78125 261.261719 443.78125 259.410156 C 441.789062 257.558594 438.980469 256.628906 435.371094 256.628906 C 431.71875 256.628906 428.910156 257.558594 426.929688 259.410156 C 424.949219 261.261719 423.960938 263.601562 423.960938 266.429688 C 423.960938 268.089844 424.390625 269.621094 425.238281 271.011719 C 426.101562 272.398438 427.46875 273.5 429.351562 274.289062 C 427.160156 275.230469 425.550781 276.550781 424.53125 278.269531 C 423.511719 279.988281 423 281.878906 423 283.941406 C 423 287.671875 424.359375 290.609375 427.070312 292.761719 C 429.371094 294.570312 432.25 295.480469 435.710938 295.480469 C 439.421875 295.480469 442.398438 294.378906 444.640625 292.191406 C 446.878906 289.988281 448 287.140625 448 283.628906 C 448 281.5 447.449219 279.628906 446.351562 278 Z M 432.101562 263.660156 C 432.929688 262.828125 434.050781 262.421875 435.449219 262.421875 C 436.800781 262.421875 437.878906 262.828125 438.699219 263.648438 C 439.519531 264.46875 439.929688 265.558594 439.929688 266.929688 C 439.929688 268.378906 439.519531 269.519531 438.691406 270.339844 C 437.859375 271.160156 436.75 271.570312 435.371094 271.570312 C 434 271.570312 432.910156 271.160156 432.089844 270.351562 C 431.269531 269.539062 430.859375 268.410156 430.859375 266.949219 C 430.859375 265.589844 431.269531 264.488281 432.101562 263.660156 Z M 439.308594 288 C 438.328125 289.078125 437.078125 289.621094 435.578125 289.621094 C 434.039062 289.621094 432.75 289.058594 431.730469 287.929688 C 430.699219 286.808594 430.179688 285.238281 430.179688 283.238281 C 430.179688 281.800781 430.621094 280.46875 431.488281 279.25 C 432.371094 278.019531 433.691406 277.398438 435.46875 277.398438 C 437.011719 277.398438 438.28125 277.941406 439.289062 279.019531 C 440.289062 280.109375 440.789062 281.539062 440.789062 283.320312 C 440.789062 285.359375 440.300781 286.921875 439.308594 288 Z M 439.308594 288 " style=" stroke:none;fill-rule:nonzero;fill:rgb(100%,100%,100%);fill-opacity:1;" />
</g>
</svg>